<?xml version="1.0" encoding="utf-8"?>
<!-- Generator: Adobe Illustrator 23.0.3, SVG Export Plug-In . SVG Version: 6.00 Build 0)  -->
<svg version="1.1" id="Layer_1" xmlns="http://www.w3.org/2000/svg" xmlns:xlink="http://www.w3.org/1999/xlink" x="0px" y="0px"
	 viewBox="0 0 10 10" style="enable-background:new 0 0 10 10;" xml:space="preserve">
<style type="text/css">
	.st0{fill-rule:evenodd;clip-rule:evenodd;fill:#E90101;}
</style>
<path class="st0" d="M7.2,0H2.8C1.1,0,0,1.2,0,3V7c0,1.7,1.1,3,2.8,3h4.3C8.9,10,10,8.8,10,7V3C10,1.2,8.9,0,7.2,0z M2.8,0.7h4.3
	c1.3,0,2.1,0.9,2.1,2.2V7c0,1.3-0.8,2.2-2.1,2.2H2.8C1.6,9.3,0.8,8.4,0.8,7V3C0.8,1.6,1.6,0.7,2.8,0.7z M3.5,3.5
	c0.1-0.1,0.3-0.1,0.5,0l0,0L5,4.5l0.9-0.9c0.1-0.1,0.4-0.1,0.5,0c0.1,0.1,0.1,0.3,0,0.5l0,0L5.5,5l0.9,0.9c0.1,0.1,0.1,0.4,0,0.5
	C6.3,6.6,6.1,6.6,6,6.5l0,0L5,5.5L4.1,6.5c-0.1,0.1-0.4,0.1-0.5,0C3.4,6.3,3.4,6.1,3.5,6l0,0L4.5,5L3.5,4.1C3.4,3.9,3.4,3.7,3.5,3.5
	z"/>
</svg>
