<?xml version="1.0" encoding="utf-8"?>
<!-- Generator: Adobe Illustrator 23.0.3, SVG Export Plug-In . SVG Version: 6.00 Build 0)  -->
<svg version="1.1" id="Layer_1" xmlns="http://www.w3.org/2000/svg" xmlns:xlink="http://www.w3.org/1999/xlink" x="0px" y="0px"
	 viewBox="0 0 24 24" style="enable-background:new 0 0 24 24;" xml:space="preserve">
<style type="text/css">
	.st0{fill:#E90101;}
</style>
<path class="st0" d="M19,2H5C3.3,2,2,3.3,2,5v14c0,1.7,1.3,3,3,3h14c0.2,0,0.3,0,0.5,0l0.3-0.1h0.1l0,0h0l0.4-0.1l0.1-0.1
	c0.1-0.1,0.2-0.1,0.3-0.2c0.1-0.1,0.3-0.2,0.4-0.3l0.1-0.1c0.1-0.1,0.2-0.2,0.3-0.3l0.1-0.1c0.1-0.1,0.1-0.2,0.2-0.4
	c0,0,0.1-0.1,0.1-0.1c0-0.1,0.1-0.3,0.1-0.4v-0.1C22,19.4,22,19.2,22,19V5C22,3.3,20.7,2,19,2z M5,20c-0.6,0-1-0.4-1-1v-4.3l3.3-3.3
	l0,0c0.4-0.4,1-0.4,1.4,0c0,0,0,0,0,0l8.6,8.6H5z M20,19c0,0.1,0,0.2-0.1,0.4c0,0,0,0.1-0.1,0.1c0,0-0.1,0.1-0.1,0.1l-5.4-5.3
	l0.9-0.9c0.4-0.4,1-0.4,1.4,0c0,0,0,0,0,0l0,0l3.3,3.3V19z M20,13.9L18.1,12c-1.2-1.1-3.1-1.1-4.2,0L13,12.9L10.1,10
	c-1.2-1.1-3.1-1.1-4.2,0L4,11.9V5c0-0.6,0.4-1,1-1h14c0.6,0,1,0.4,1,1V13.9z M13.5,6C12.7,6,12,6.7,12,7.5S12.7,9,13.5,9
	S15,8.3,15,7.5S14.3,6,13.5,6z"/>
</svg>
