<?xml version="1.0" encoding="utf-8"?>
<!-- Generator: Adobe Illustrator 23.0.3, SVG Export Plug-In . SVG Version: 6.00 Build 0)  -->
<svg version="1.1" id="Layer_1" xmlns="http://www.w3.org/2000/svg" xmlns:xlink="http://www.w3.org/1999/xlink" x="0px" y="0px"
	 viewBox="0 0 24 24" style="enable-background:new 0 0 24 24;" xml:space="preserve">
<style type="text/css">
	.st0{fill:#E90101;}
</style>
<path class="st0" d="M21.5,7.2c-0.3-0.2-0.7-0.2-1,0L17,8.9C16.9,7.3,15.6,6,14,6H5C3.3,6,2,7.3,2,9v6c0,1.7,1.3,3,3,3h9
	c1.6,0,2.9-1.3,3-2.9l3.6,1.8C20.7,17,20.8,17,21,17c0.2,0,0.4-0.1,0.5-0.1c0.3-0.2,0.5-0.5,0.5-0.9V8C22,7.7,21.8,7.3,21.5,7.2z
	 M15,15c0,0.6-0.4,1-1,1H5c-0.6,0-1-0.4-1-1V9c0-0.6,0.4-1,1-1h9c0.6,0,1,0.4,1,1V15z M20,14.4l-3-1.5v-1.8l3-1.5V14.4z"/>
</svg>
