<?xml version="1.0" encoding="utf-8"?>
<!-- Generator: Adobe Illustrator 23.0.3, SVG Export Plug-In . SVG Version: 6.00 Build 0)  -->
<svg version="1.1" id="Layer_1" xmlns="http://www.w3.org/2000/svg" xmlns:xlink="http://www.w3.org/1999/xlink" x="0px" y="0px"
	 viewBox="0 0 90 90" style="enable-background:new 0 0 90 90;" xml:space="preserve">
<style type="text/css">
	.st0{fill:#FFE1E1;}
	.st1{fill:#EF3535;}
	.st2{fill:#FFFFFF;}
</style>
<rect class="st0" width="90" height="90"/>
<g>
	<ellipse transform="matrix(0.2235 -0.9747 0.9747 0.2235 -8.9206 78.8018)" class="st1" cx="45" cy="45" rx="42" ry="42"/>
	<ellipse class="st2" cx="45" cy="39.6" rx="16.3" ry="22.6"/>
	<path class="st2" d="M44.7,60.8c-13.7,0-25.9,3.3-34,8.4C18.3,80,30.8,87,45,87c14.1,0,26.5-6.9,34.1-17.5
		C71,64.2,58.6,60.8,44.7,60.8z"/>
	<path class="st2" d="M47.5,71.7h-5c-3.4,0-6.2-2.8-6.2-6.2V51.2c0-3.4,2.8-6.2,6.2-6.2h5c3.4,0,6.2,2.8,6.2,6.2v14.2
		C53.7,68.9,50.9,71.7,47.5,71.7z"/>
	<path class="st2" d="M31.2,40.9c0.5,3.6-0.3,6.8-1.8,7c-1.5,0.3-3.1-2.5-3.6-6.1c-0.5-3.6,0.3-6.8,1.8-7
		C29.2,34.6,30.8,37.3,31.2,40.9z"/>
	<path class="st2" d="M58.8,40.9c-0.5,3.6,0.3,6.8,1.8,7c1.5,0.3,3.1-2.5,3.6-6.1c0.5-3.6-0.3-6.8-1.8-7
		C60.8,34.6,59.2,37.3,58.8,40.9z"/>
	<path class="st2" d="M29.2,38.7c-0.5-3.6-1.1-7.2-1.6-10.9c-0.2-1.3-0.4-2.7,0.1-3.9c0.5-1.2,1.9-2.2,3.1-1.8
		c-0.5-2.5,2.3-4.4,4.7-5.2c4.1-1.4,8.4-2.1,12.7-1.6c4.3,0.6,8.4,2.4,11.3,5.6c0.9,1,1.7,2.2,2.1,3.5c0.8,2.5,0.3,5.2-0.2,7.8
		c-0.4,2-0.9,4.1-1.3,6.1c-0.1,0.5-0.2,1-0.5,1.3c-0.5,0.6-1.4,0.6-2.1,0.6c-8.1,0-16.2,0-24.3,0.1c-1.5,0-3.5-0.4-3.7-1.9"/>
</g>
</svg>
